HIERARCHY
ROOT hip
{
	OFFSET 0.00000 0.00000 0.00000
	CHANNELS 6 Xposition Yposition Zposition Zrotation Yrotation Xrotation 
	JOINT lhipjoint
	{
		OFFSET 0 0 0
		CHANNELS 3 Zrotation Yrotation Xrotation
		JOINT lfemur
		{
			OFFSET 1.57314 -1.85774 0.63783
			CHANNELS 3 Zrotation Yrotation Xrotation
			JOINT ltibia
			{
				OFFSET 2.57982 -7.08799 0.00000
				CHANNELS 3 Zrotation Yrotation Xrotation
				JOINT lfoot
				{
					OFFSET 2.63993 -7.25315 0.00000
					CHANNELS 3 Zrotation Yrotation Xrotation
					JOINT ltoes
					{
						OFFSET 0.16864 -0.46332 2.12791
						CHANNELS 3 Zrotation Yrotation Xrotation
						End Site
						{
							OFFSET 0.00000 -0.00000 1.09718
						}
					}
				}
			}
		}
	}
	JOINT rhipjoint
	{
		OFFSET 0 0 0
		CHANNELS 3 Zrotation Yrotation Xrotation
		JOINT rfemur
		{
			OFFSET -1.56006 -1.85774 0.63784
			CHANNELS 3 Zrotation Yrotation Xrotation
			JOINT rtibia
			{
				OFFSET -2.54246 -6.98536 0.00000
				CHANNELS 3 Zrotation Yrotation Xrotation
				JOINT rfoot
				{
					OFFSET -2.65791 -7.30256 0.00000
					CHANNELS 3 Zrotation Yrotation Xrotation
					JOINT rtoes
					{
						OFFSET -0.18435 -0.50650 2.16316
						CHANNELS 3 Zrotation Yrotation Xrotation
						End Site
						{
							OFFSET -0.00000 -0.00000 1.11780
						}
					}
				}
			}
		}
	}
	JOINT lowerback
	{
		OFFSET 0 0 0
		CHANNELS 3 Zrotation Yrotation Xrotation
		JOINT upperback
		{
			OFFSET -0.00136 1.92812 -0.29638
			CHANNELS 3 Zrotation Yrotation Xrotation
			JOINT thorax
			{
				OFFSET -0.00528 1.96223 -0.02928
				CHANNELS 3 Zrotation Yrotation Xrotation
				JOINT lowerneck
				{
					OFFSET 0 0 0
					CHANNELS 3 Zrotation Yrotation Xrotation
					JOINT upperneck
					{
						OFFSET -0.01015 1.75586 0.07797
						CHANNELS 3 Zrotation Yrotation Xrotation
						JOINT head
						{
							OFFSET 0.05540 1.72452 0.04558
							CHANNELS 3 Zrotation Yrotation Xrotation
							End Site
							{
								OFFSET 0.02170 1.79958 0.00864
							}
						}
					}
				}
				JOINT lclavicle
				{
					OFFSET 0 0 0
					CHANNELS 3 Zrotation Yrotation Xrotation
					JOINT lhumerus
					{
						OFFSET 3.16292 1.29277 -0.65728
						CHANNELS 3 Zrotation Yrotation Xrotation
						JOINT lradius
						{
							OFFSET 5.52302 -0.00000 -0.00000
							CHANNELS 3 Zrotation Yrotation Xrotation
							JOINT lwrist
							{
								OFFSET 3.58675 -0.00000 -0.00000
								CHANNELS 3 Zrotation Yrotation Xrotation
								JOINT lhand
								{
									OFFSET 0 0 0
									CHANNELS 3 Zrotation Yrotation Xrotation
									JOINT lfingers
									{
										OFFSET 0.53641 -0.00000 -0.00000
										CHANNELS 3 Zrotation Yrotation Xrotation
										End Site
										{
											OFFSET 0.43247 -0.00000 -0.00000
										}
									}
								}
								JOINT lthumb
								{
									OFFSET 0 0 0
									CHANNELS 3 Zrotation Yrotation Xrotation
									End Site
									{
										OFFSET 0.43907 -0.00000 0.43907
									}
								}
							}
						}
					}
				}
				JOINT rclavicle
				{
					OFFSET 0 0 0
					CHANNELS 3 Zrotation Yrotation Xrotation
					JOINT rhumerus
					{
						OFFSET -3.08296 1.43376 -0.52927
						CHANNELS 3 Zrotation Yrotation Xrotation
						JOINT rradius
						{
							OFFSET -5.84780 -0.00000 0.00000
							CHANNELS 3 Zrotation Yrotation Xrotation
							JOINT rwrist
							{
								OFFSET -3.62717 -0.00000 -0.00000
								CHANNELS 3 Zrotation Yrotation Xrotation
								JOINT rhand
								{
									OFFSET 0 0 0
									CHANNELS 3 Zrotation Yrotation Xrotation
									JOINT rfingers
									{
										OFFSET -0.65052 -0.00000 -0.00000
										CHANNELS 3 Zrotation Yrotation Xrotation
										End Site
										{
											OFFSET -0.52446 -0.00000 -0.00000
										}
									}
								}
								JOINT rthumb
								{
									OFFSET 0 0 0
									CHANNELS 3 Zrotation Yrotation Xrotation
									End Site
									{
										OFFSET -0.53247 -0.00000 0.53247
									}
								}
							}
						}
					}
				}
			}
		}
	}
}
MOTION
Frames: 13
Frame Time: 0.033333
5.7871 17.9662 -23.3795 3.9083 -28.2917 2.6714 -0.0000 0.0000 -0.0000 -27.6489 -2.7290 5.4549 0.5695 5.6572 15.2152 0.5398 2.9702 -11.9490 1.6992 -8.1567 -23.4222 0.0000 -0.0000 -0.0000 12.3969 20.0739 -25.9023 -4.7419 -11.6935 36.7847 0.1405 -14.8579 -15.0135 0.0781 0.7992 -2.2312 -2.6378 -2.0696 10.7769 -0.2218 -3.0123 2.3518 1.6331 -1.4724 -3.4618 1.9851 2.3313 -0.1356 -0.2983 3.7114 6.4054 -0.0323 1.8387 1.9260 -0.0000 0.0000 -0.0000 -75.4191 -21.4210 34.3106 13.4766 -21.4335 -2.9922 -0.0000 -0.0000 -8.0822 37.3205 13.6481 10.1814 -7.0546 0.0000 -0.0000 9.3756 47.7167 0.5009 0.0000 0.0000 0.0000 84.9257 -2.4034 25.0895 -14.4002 23.0225 -3.1657 0.0000 0.0000 13.5560 -20.8799 12.7275 -4.8868 7.0546 0.0000 0.0000 4.2849 -16.1019 2.8848
5.9738 17.9348 -23.2515 3.7993 -28.1952 2.7859 -0.0000 0.0000 -0.0000 -27.4399 -2.7195 6.1416 0.4678 5.4787 14.6236 0.5189 2.7847 -11.5966 1.6834 -8.0248 -23.0389 0.0000 -0.0000 -0.0000 12.7218 20.6109 -25.6205 -4.1514 -11.0031 34.1288 0.1967 -15.5231 -14.9103 0.0215 0.6120 -1.6697 -2.7624 -2.0553 10.7447 -0.3484 -2.9997 2.4324 1.5497 -1.4706 -3.3212 2.2811 2.4951 -0.2302 -0.3195 3.8816 6.3378 -0.0793 1.9288 1.8974 -0.0000 0.0000 -0.0000 -75.0235 -21.9638 35.7697 13.9270 -22.0190 -3.1961 -0.0000 -0.0000 -9.2414 37.3506 13.3103 10.0311 -7.0504 0.0000 -0.0000 9.5794 47.3038 0.4357 0.0000 0.0000 0.0000 84.9999 -2.7108 24.0007 -14.2286 22.7367 -3.1162 0.0000 0.0000 15.1312 -20.1808 14.3734 -5.2757 7.0504 0.0000 0.0000 4.8315 -14.4253 3.4672
6.2050 17.8847 -23.1145 3.7814 -28.4218 2.9931 -0.0000 0.0000 -0.0000 -27.5873 -2.2377 6.6362 0.3953 5.2900 14.0485 0.5120 2.6385 -11.3252 1.7271 -8.1323 -23.3532 0.0000 -0.0000 -0.0000 12.6118 21.3822 -25.4424 -3.6321 -10.3363 31.6572 0.2145 -15.5793 -14.2837 -0.0212 0.4237 -1.1359 -2.8265 -2.0442 10.6805 -0.3912 -2.9868 2.4618 1.5355 -1.4652 -3.2452 2.2439 2.6758 -0.4358 -0.2448 4.0941 6.2504 -0.0439 2.0374 1.9172 -0.0000 0.0000 -0.0000 -74.7856 -22.2694 36.2264 14.3851 -22.6379 -3.3915 -0.0000 -0.0000 -9.7675 37.5229 12.4068 9.6204 -7.0365 0.0000 -0.0000 10.0077 46.2740 0.2412 0.0000 0.0000 0.0000 84.9048 -2.8887 23.8688 -14.0900 22.5411 -3.0628 0.0000 0.0000 15.6454 -19.6871 14.2268 -5.0877 7.0365 0.0000 0.0000 5.1193 -14.5697 3.6621
6.1871 17.7946 -22.9669 3.7474 -29.0501 3.2506 -0.0000 0.0000 -0.0000 -27.7673 -1.5373 7.1317 0.3305 5.0796 13.4375 0.5097 2.7943 -10.9120 1.8190 -8.5840 -24.6521 0.0000 -0.0000 -0.0000 12.1828 22.4750 -25.3503 -3.1037 -9.6599 29.1445 0.2203 -14.9082 -12.9520 -0.0527 0.0740 -0.1529 -2.9703 -2.0545 10.5835 -0.4411 -3.0149 2.4665 1.5708 -1.4799 -3.1844 2.0535 2.8916 -0.5550 -0.0899 4.3484 6.0761 0.0581 2.1472 1.8991 -0.0000 0.0000 -0.0000 -74.5266 -22.4770 35.8049 14.8781 -23.2695 -3.6282 -0.0000 -0.0000 -9.9817 37.5214 12.3350 9.6887 -7.0048 0.0000 -0.0000 10.2420 46.2179 0.2683 0.0000 0.0000 0.0000 84.7106 -3.0689 24.0885 -13.9063 22.2950 -2.9888 0.0000 0.0000 15.7828 -19.3366 14.2304 -5.0129 7.0048 0.0000 0.0000 5.2758 -14.4595 3.7818
6.1422 17.6857 -22.8393 3.7103 -29.2243 3.6095 0.0000 -0.0000 -0.0000 -27.8752 -1.2662 7.7869 0.2543 4.8438 12.7576 0.5122 3.1179 -10.2617 1.9023 -9.1058 -26.1314 -0.0000 0.0000 -0.0000 11.4260 23.5602 -25.5627 -2.6009 -9.0107 26.7334 0.2481 -14.6280 -11.8229 -0.0519 0.0501 -0.0876 -3.1631 -1.9694 10.6328 -0.4870 -2.9227 2.4787 1.6394 -1.4336 -3.1949 1.7676 3.1888 -0.4940 0.2873 4.7140 5.2916 0.2626 2.3010 1.6811 0.0000 -0.0000 0.0000 -74.2746 -22.2916 35.3786 15.2986 -23.7757 -3.8573 0.0000 0.0000 -10.4019 37.4417 12.3464 9.7407 -6.9617 -0.0000 0.0000 10.2846 46.1583 0.2865 0.0000 0.0000 0.0000 84.4203 -3.1656 24.6029 -13.8100 22.1282 -2.9751 0.0000 0.0000 15.8091 -19.1851 14.5412 -5.1117 6.9617 0.0000 0.0000 5.2873 -13.9553 3.8393
5.9667 17.5951 -22.6692 3.7373 -29.6299 3.7432 0.0000 -0.0000 -0.0000 -28.0015 -0.7524 8.5408 0.2057 4.6337 12.1831 0.5021 3.2614 -9.8801 1.9917 -9.3740 -26.9222 -0.0000 0.0000 -0.0000 10.7157 24.8072 -25.3578 -2.1098 -8.4250 24.4879 0.2724 -14.6425 -11.1467 -0.0653 0.1374 -0.3289 -3.4136 -2.0015 10.5803 -0.5521 -2.9878 2.5264 1.7216 -1.4684 -3.0959 1.7151 3.0424 -0.8745 0.2645 4.4023 6.1293 0.1900 2.1930 2.0150 0.0000 -0.0000 0.0000 -74.3993 -22.0757 35.2381 15.8454 -24.4790 -4.1137 0.0000 0.0000 -10.6202 37.4000 11.8773 9.5501 -6.9336 -0.0000 0.0000 10.5292 45.6206 0.2079 0.0000 0.0000 0.0000 84.2441 -3.4536 24.6075 -13.8088 22.1408 -2.9691 0.0000 0.0000 16.0600 -18.6845 14.9724 -5.1403 6.9336 0.0000 0.0000 5.5765 -13.4281 4.1049
6.2007 17.5554 -22.5424 3.6996 -29.9006 3.8568 0.0000 -0.0000 -0.0000 -28.0907 -0.0244 9.2755 0.1246 4.3610 11.3942 0.4825 3.3604 -9.4083 2.1124 -9.8523 -28.3130 -0.0000 0.0000 -0.0000 10.2345 25.9483 -24.9210 -1.6689 -7.8898 22.4572 0.2905 -14.4237 -11.2156 -0.1047 -0.1244 0.4184 -3.4805 -1.9386 10.5143 -0.5685 -2.9113 2.5276 1.7435 -1.4297 -3.0756 1.6402 3.4242 -1.0278 0.1946 4.9380 5.9461 0.2254 2.4390 1.9588 0.0000 -0.0000 0.0000 -74.6203 -21.8458 35.2369 16.3531 -25.1390 -4.3489 0.0000 0.0000 -10.4554 37.3679 11.5618 9.4127 -6.9207 -0.0000 0.0000 10.6703 45.2730 0.1470 0.0000 0.0000 0.0000 84.2181 -3.7121 24.4781 -13.6953 21.9658 -2.9320 0.0000 0.0000 16.6142 -18.2958 15.1696 -5.1124 6.9207 0.0000 0.0000 5.8154 -13.2015 4.2977
5.9823 17.5191 -22.3490 3.7041 -30.1018 3.6613 0.0000 -0.0000 -0.0000 -27.5351 0.4467 10.2794 -0.0612 4.0370 10.2776 0.4729 3.3129 -8.6890 2.3033 -10.6086 -30.5501 0.0000 0.0000 -0.0000 10.3744 26.2621 -24.7117 -1.3354 -7.4970 20.9611 0.2734 -13.4684 -10.9982 -0.1356 -0.2840 0.8627 -3.5365 -2.2664 10.3373 -0.4282 -3.3497 2.4885 1.9481 -1.6506 -2.9924 1.7536 2.5117 -1.3882 -0.3486 3.6374 7.6196 -0.1219 1.8755 2.5267 0.0000 -0.0000 0.0000 -74.7170 -21.9289 35.0033 17.0443 -26.1301 -4.5925 0.0000 0.0000 -10.9009 37.2184 11.9958 9.6309 -6.9202 -0.0000 0.0000 10.4946 45.7710 0.2571 0.0000 0.0000 0.0000 84.0802 -3.8323 24.5907 -13.7617 22.0747 -2.9527 0.0000 0.0000 16.1425 -18.0267 14.9526 -4.9621 6.9202 0.0000 0.0000 5.9910 -13.4563 4.3940
5.9611 17.4944 -22.1708 3.7947 -30.2030 3.5715 0.0000 -0.0000 -0.0000 -27.3951 1.0411 11.5022 -0.2402 3.6707 9.0907 0.4716 3.2305 -7.8963 2.4668 -11.4053 -32.8612 0.0000 -0.0000 -0.0000 10.3505 26.4429 -24.5755 -1.0945 -7.1784 19.7960 0.2516 -12.5897 -10.9503 -0.1362 -0.1041 0.3519 -3.7056 -2.3293 10.2544 -0.4359 -3.4554 2.4238 2.0465 -1.7009 -3.0141 1.5090 2.5993 -1.1287 -0.1594 3.8287 6.4343 0.0357 1.9155 2.1306 0.0000 -0.0000 0.0000 -74.4265 -22.0646 34.8652 17.5458 -26.8147 -4.7996 0.0000 0.0000 -11.6033 37.1440 12.1652 9.6401 -6.9147 -0.0000 0.0000 10.2158 45.9381 0.2577 0.0000 0.0000 0.0000 84.0593 -4.0612 24.6162 -13.6657 21.8503 -2.9669 0.0000 0.0000 15.9858 -18.2101 14.8148 -4.9751 6.9147 0.0000 0.0000 5.8483 -13.5547 4.2740
5.9897 17.4353 -22.0014 3.9572 -30.3136 3.4989 -0.0000 -0.0000 -0.0000 -27.3944 1.8011 12.8948 -0.4140 3.2806 7.8576 0.4651 3.1423 -7.1540 2.5758 -11.6711 -33.6580 0.0000 -0.0000 -0.0000 10.1558 26.5791 -24.4166 -0.9216 -6.9346 18.9234 0.2109 -11.7061 -11.1858 -0.1090 0.4699 -1.2778 -3.8837 -2.3782 10.1149 -0.4697 -3.5443 2.3545 2.1247 -1.7437 -3.0182 1.2987 2.7055 -1.2224 -0.1322 3.9908 6.0004 0.0837 1.9730 2.0221 -0.0000 0.0000 -0.0000 -74.4439 -21.8657 34.5053 18.0750 -27.5419 -5.0130 -0.0000 -0.0000 -12.1258 37.1488 12.1969 9.7032 -6.8985 0.0000 -0.0000 10.2711 45.9901 0.2796 0.0000 0.0000 0.0000 83.9167 -4.3017 24.8714 -13.6167 21.7167 -2.9873 0.0000 0.0000 15.7084 -18.2351 14.4148 -4.8544 6.8985 0.0000 0.0000 5.7699 -13.8987 4.1741
6.2188 17.3676 -21.8634 3.9689 -30.6547 3.4414 -0.0000 0.0000 -0.0000 -27.4206 2.5782 14.1189 -0.6185 2.8639 6.5067 0.4549 3.1468 -6.3131 2.5932 -11.2730 -32.5467 0.0000 -0.0000 -0.0000 10.0485 26.6706 -24.2991 -0.7861 -6.7207 18.1895 0.1477 -10.8015 -11.6176 -0.0621 1.4852 -4.1590 -3.9866 -2.4889 9.9518 -0.4715 -3.7041 2.2968 2.1988 -1.8232 -2.9887 1.2369 2.7581 -1.6752 -0.3449 4.0327 6.3874 -0.0345 2.0139 2.2201 -0.0000 0.0000 -0.0000 -74.7877 -21.6449 34.4007 18.5097 -28.1406 -5.1870 -0.0000 -0.0000 -12.6990 37.0419 12.4292 9.8504 -6.8810 0.0000 -0.0000 10.1832 46.2237 0.3408 0.0000 0.0000 0.0000 83.6665 -4.5021 25.1126 -13.6652 21.7373 -3.0366 0.0000 0.0000 15.4116 -18.1096 13.9713 -4.6699 6.8810 0.0000 0.0000 5.7862 -14.3006 4.1417
6.4483 17.3533 -21.7364 3.9857 -30.7708 3.3136 -0.0000 0.0000 -0.0000 -27.3484 3.0707 15.4154 -0.8751 2.3847 4.9120 0.4348 3.2609 -5.3821 2.5638 -10.6381 -30.7373 0.0000 -0.0000 -0.0000 10.1718 26.5526 -24.2525 -0.6868 -6.5555 17.6441 0.1160 -10.1788 -12.2849 -0.0276 2.0754 -5.8409 -4.0158 -2.5559 9.8294 -0.4686 -3.7976 2.2718 2.2284 -1.8681 -2.9552 1.1976 2.8204 -2.1228 -0.4649 4.1010 6.5797 -0.1166 2.0723 2.3769 -0.0000 0.0000 -0.0000 -74.9615 -21.6269 34.3021 18.8237 -28.6224 -5.2770 -0.0000 -0.0000 -13.4768 37.6403 10.4782 8.9454 -6.8864 0.0000 -0.0000 11.0834 44.0093 -0.1440 0.0000 0.0000 0.0000 83.5780 -4.6442 25.1797 -13.6518 21.6948 -3.0439 0.0000 0.0000 15.3913 -18.0733 13.3500 -4.4258 6.8864 0.0000 0.0000 5.7852 -14.9841 4.0731
6.5551 17.3836 -21.5687 3.9714 -30.1868 3.1533 -0.0000 0.0000 -0.0000 -27.0252 3.0970 17.1270 -1.2310 1.8153 2.9308 0.4068 3.4051 -4.0208 2.5850 -10.4851 -30.3121 0.0000 -0.0000 -0.0000 10.4639 25.9056 -24.2024 -0.6259 -6.4465 17.2999 0.1342 -10.0055 -12.7656 -0.0348 2.1695 -6.1084 -4.1199 -2.5874 9.7908 -0.4602 -3.8547 2.2277 2.2972 -1.8952 -2.9743 1.0931 2.6829 -2.0387 -0.3446 3.9496 5.8293 -0.0602 1.9815 2.1711 -0.0000 0.0000 -0.0000 -74.8796 -21.4238 34.1459 19.0282 -28.9627 -5.3166 -0.0000 -0.0000 -14.2233 38.1067 8.8281 8.0438 -6.9071 0.0000 -0.0000 11.5570 42.0516 -0.6603 0.0000 0.0000 0.0000 83.7112 -4.7109 25.1065 -13.5924 21.5502 -3.0515 0.0000 0.0000 15.6448 -18.0943 12.9959 -4.2858 6.9071 0.0000 0.0000 5.8012 -15.4485 4.0410
